<mxfile host="Electron" modified="2023-05-07T12:23:09.241Z" agent="Mozilla/5.0 (Windows NT 10.0; Win64; x64) AppleWebKit/537.36 (KHTML, like Gecko) draw.io/21.2.8 Chrome/112.0.5615.165 Electron/24.2.0 Safari/537.36" etag="CJEICtn74LEZ94hgjm-R" version="21.2.8" type="device">
  <diagram id="R2lEEEUBdFMjLlhIrx00" name="Page-1">
    <mxGraphModel dx="1120" dy="532" grid="0" gridSize="10" guides="1" tooltips="1" connect="1" arrows="1" fold="1" page="1" pageScale="1" pageWidth="850" pageHeight="1100" math="0" shadow="0" extFonts="Permanent Marker^https://fonts.googleapis.com/css?family=Permanent+Marker">
      <root>
        <mxCell id="0" />
        <mxCell id="1" parent="0" />
        <mxCell id="2vAVYUKRuK6snD1z7z8g-1" value="" style="edgeStyle=entityRelationEdgeStyle;fontSize=12;html=1;endArrow=ERzeroToMany;endFill=1;startArrow=ERzeroToMany;rounded=0;exitX=1;exitY=0.25;exitDx=0;exitDy=0;entryX=-0.025;entryY=0.148;entryDx=0;entryDy=0;entryPerimeter=0;" parent="1" source="Cv7Zb7MOIgmUgLfLmAZX-2" edge="1" target="Cv7Zb7MOIgmUgLfLmAZX-6">
          <mxGeometry width="100" height="100" relative="1" as="geometry">
            <mxPoint x="320" y="190" as="sourcePoint" />
            <mxPoint x="450" y="166" as="targetPoint" />
          </mxGeometry>
        </mxCell>
        <mxCell id="2vAVYUKRuK6snD1z7z8g-3" value="" style="edgeStyle=orthogonalEdgeStyle;fontSize=12;html=1;endArrow=ERzeroToMany;endFill=1;startArrow=ERzeroToMany;rounded=0;exitX=-0.019;exitY=0.398;exitDx=0;exitDy=0;entryX=0.014;entryY=0.096;entryDx=0;entryDy=0;entryPerimeter=0;exitPerimeter=0;" parent="1" source="Cv7Zb7MOIgmUgLfLmAZX-9" edge="1" target="Cv7Zb7MOIgmUgLfLmAZX-2">
          <mxGeometry width="100" height="100" relative="1" as="geometry">
            <mxPoint x="290" y="515" as="sourcePoint" />
            <mxPoint x="47" y="193" as="targetPoint" />
            <Array as="points">
              <mxPoint x="334" y="515" />
              <mxPoint x="21" y="515" />
              <mxPoint x="21" y="194" />
            </Array>
          </mxGeometry>
        </mxCell>
        <mxCell id="2vAVYUKRuK6snD1z7z8g-4" value="" style="edgeStyle=orthogonalEdgeStyle;fontSize=12;html=1;endArrow=ERzeroToMany;endFill=1;startArrow=ERzeroToMany;rounded=0;exitX=1.013;exitY=0.421;exitDx=0;exitDy=0;entryX=1;entryY=0.25;entryDx=0;entryDy=0;exitPerimeter=0;" parent="1" source="Cv7Zb7MOIgmUgLfLmAZX-9" target="Cv7Zb7MOIgmUgLfLmAZX-6" edge="1">
          <mxGeometry width="100" height="100" relative="1" as="geometry">
            <mxPoint x="560" y="515" as="sourcePoint" />
            <mxPoint x="698" y="171" as="targetPoint" />
            <Array as="points">
              <mxPoint x="499" y="515" />
              <mxPoint x="698" y="515" />
              <mxPoint x="698" y="189" />
            </Array>
          </mxGeometry>
        </mxCell>
        <mxCell id="Cv7Zb7MOIgmUgLfLmAZX-1" value="Customer" style="swimlane;childLayout=stackLayout;horizontal=1;startSize=50;horizontalStack=0;rounded=1;fontSize=14;fontStyle=0;strokeWidth=2;resizeParent=0;resizeLast=1;shadow=0;dashed=0;align=center;arcSize=4;whiteSpace=wrap;html=1;" vertex="1" parent="1">
          <mxGeometry x="49" y="128" width="214" height="216" as="geometry" />
        </mxCell>
        <mxCell id="Cv7Zb7MOIgmUgLfLmAZX-2" value="&lt;br style=&quot;border-color: var(--border-color); padding: 0px; margin: 0px;&quot;&gt;customer_id&amp;nbsp;&lt;br style=&quot;border-color: var(--border-color); padding: 0px; margin: 0px;&quot;&gt;customer_name&lt;br style=&quot;border-color: var(--border-color); padding: 0px; margin: 0px;&quot;&gt;customer_username&lt;br style=&quot;border-color: var(--border-color); padding: 0px; margin: 0px;&quot;&gt;customer_email&lt;br style=&quot;border-color: var(--border-color); padding: 0px; margin: 0px;&quot;&gt;customer_address&lt;br style=&quot;border-color: var(--border-color); padding: 0px; margin: 0px;&quot;&gt;customer_password&lt;br style=&quot;border-color: var(--border-color); padding: 0px; margin: 0px;&quot;&gt;customer_phoneNumber" style="align=left;strokeColor=none;fillColor=none;spacingLeft=4;fontSize=12;verticalAlign=top;resizable=0;rotatable=0;part=1;html=1;" vertex="1" parent="Cv7Zb7MOIgmUgLfLmAZX-1">
          <mxGeometry y="50" width="214" height="166" as="geometry" />
        </mxCell>
        <mxCell id="Cv7Zb7MOIgmUgLfLmAZX-5" value="Administrator" style="swimlane;childLayout=stackLayout;horizontal=1;startSize=50;horizontalStack=0;rounded=1;fontSize=14;fontStyle=0;strokeWidth=2;resizeParent=0;resizeLast=1;shadow=0;dashed=0;align=center;arcSize=4;whiteSpace=wrap;html=1;" vertex="1" parent="1">
          <mxGeometry x="469" y="102" width="160" height="199" as="geometry" />
        </mxCell>
        <mxCell id="Cv7Zb7MOIgmUgLfLmAZX-6" value="admin_id&lt;br style=&quot;border-color: var(--border-color); padding: 0px; margin: 0px;&quot;&gt;admin_email&lt;br style=&quot;border-color: var(--border-color); padding: 0px; margin: 0px;&quot;&gt;admin_name&lt;br style=&quot;border-color: var(--border-color); padding: 0px; margin: 0px;&quot;&gt;admin_password" style="align=left;strokeColor=none;fillColor=none;spacingLeft=4;fontSize=12;verticalAlign=top;resizable=0;rotatable=0;part=1;html=1;" vertex="1" parent="Cv7Zb7MOIgmUgLfLmAZX-5">
          <mxGeometry y="50" width="160" height="149" as="geometry" />
        </mxCell>
        <mxCell id="Cv7Zb7MOIgmUgLfLmAZX-7" style="edgeStyle=orthogonalEdgeStyle;rounded=0;orthogonalLoop=1;jettySize=auto;html=1;exitX=0.5;exitY=1;exitDx=0;exitDy=0;" edge="1" parent="Cv7Zb7MOIgmUgLfLmAZX-5" source="Cv7Zb7MOIgmUgLfLmAZX-6" target="Cv7Zb7MOIgmUgLfLmAZX-6">
          <mxGeometry relative="1" as="geometry" />
        </mxCell>
        <mxCell id="Cv7Zb7MOIgmUgLfLmAZX-8" value="Vendor" style="swimlane;childLayout=stackLayout;horizontal=1;startSize=50;horizontalStack=0;rounded=1;fontSize=14;fontStyle=0;strokeWidth=2;resizeParent=0;resizeLast=1;shadow=0;dashed=0;align=center;arcSize=4;whiteSpace=wrap;html=1;" vertex="1" parent="1">
          <mxGeometry x="337" y="411" width="160" height="183" as="geometry" />
        </mxCell>
        <mxCell id="Cv7Zb7MOIgmUgLfLmAZX-9" value="vendor_id&lt;br style=&quot;border-color: var(--border-color); padding: 0px; margin: 0px;&quot;&gt;vendor_name&amp;nbsp;&lt;br style=&quot;border-color: var(--border-color); padding: 0px; margin: 0px;&quot;&gt;vendor_password&lt;br style=&quot;border-color: var(--border-color); padding: 0px; margin: 0px;&quot;&gt;vendor_phoneNumber&lt;br style=&quot;border-color: var(--border-color); padding: 0px; margin: 0px;&quot;&gt;vendor_email" style="align=left;strokeColor=none;fillColor=none;spacingLeft=4;fontSize=12;verticalAlign=top;resizable=0;rotatable=0;part=1;html=1;" vertex="1" parent="Cv7Zb7MOIgmUgLfLmAZX-8">
          <mxGeometry y="50" width="160" height="133" as="geometry" />
        </mxCell>
      </root>
    </mxGraphModel>
  </diagram>
</mxfile>
